<?xml version="1.0" ?><svg style="enable-background:new 0 0 64 64;" version="1.1" viewBox="0 0 64 64" xml:space="preserve" xmlns="http://www.w3.org/2000/svg" xmlns:xlink="http://www.w3.org/1999/xlink"><style type="text/css">
	.st0{fill:#0072FF;}
</style><g id="GUIDES_64"/><g id="Layer_3"/><g id="Layer_2"><path class="st0" d="M43.1,4.7c-2.9,1.5-4,5.1-2.5,8c0,0.1,2.3,4.5,3.4,11.3c0.1,0.5-0.6,0.8-0.9,0.4C37,16,29.9,12,29.3,11.7   c-0.6-0.3-1.2-0.5-1.8-0.6c-1.3-0.3-2.6-0.2-3.9,0.4c-2.7,1.3-3.9,4.5-2.7,7.3c0.1,0.3,0.2,0.6,0.4,0.9c0.3,0.7,0.7,1.8,1.2,3.2   l0,0c0,0,0.2,0.5,0.5,1.6c0.1,0.2,0.1,0.4,0.2,0.6c0,0.1,0,0.1,0,0.2c0.3,1.9,0.6,4.9,0.3,9.3C23.4,35.4,22.7,36,22,36   c-0.8,0-1.5-0.7-1.5-1.6c0.2-1.9,0.3-5.2-0.1-8.3c-0.3-1.9-1.2-3.6-2.7-4.8c-2.8-2.2-5-3.4-5.3-3.6c-2.8-1.5-6.2-0.5-7.7,2.2   c-1.5,2.8-0.5,6.1,2.3,7.6c0.1,0.1,13.1,7.2,13.1,19.7c0,0,0,0.1,0,0.1c0,0.1,0,0.2,0,0.3c0,0.1,0,0.1,0,0.2   c0.1,1.7,0.9,3.3,2.4,4.3c1,0.7,2.1,1,3.3,1c1.8,0,3.5-0.8,4.7-2.4c0.9-1.3,1.7-2.7,2.4-4.1c1.6-3.5,1.7-7.6,0.1-11.1   c-1.3-2.8-2.9-4.8-3.8-5.9c-0.5-0.5-0.5-1.3-0.2-1.9c0.6-1,2-1.1,2.7-0.2c2.1,2.7,3.9,6.4,4.9,8.5c0,0,0,0,0,0c0,0,0,0,0,0   c0.2,0.5,0.4,0.8,0.5,1.1c0.1,0.1,0.1,0.3,0.2,0.4c0.1,0.1,0.1,0.2,0.1,0.2l0,0c1.4,3.3,2.4,7.2,2.6,11.6c0.1,1.2,0,2.5-0.1,3.7   c-0.2,2.4,1.1,4.8,3.4,5.9c0.7,0.3,1.5,0.5,2.2,0.5c0,0,0,0,0,0c0,0,0,0,0.1,0c0.1,0,0.1,0,0.2,0c0,0,0,0,0,0c0,0,0,0,0,0   c2.5,0,4.7-1.6,5.5-4c11.5-25.7,0.4-47.7-0.1-48.6C49.6,4.3,46,3.2,43.1,4.7z"/></g></svg>